<svg width="136" height="24" viewBox="0 0 136 24" fill="none" xmlns="http://www.w3.org/2000/svg">
<path d="M12.0001 17.275L7.85008 19.775C7.66675 19.8916 7.47508 19.9416 7.27508 19.9249C7.07508 19.9083 6.90008 19.8416 6.75008 19.725C6.60008 19.6083 6.48342 19.4626 6.40008 19.288C6.31675 19.1133 6.30008 18.9173 6.35008 18.7L7.45008 13.975L3.77508 10.8C3.60842 10.65 3.50442 10.479 3.46308 10.287C3.42175 10.095 3.43408 9.90762 3.50008 9.72495C3.56608 9.54228 3.66608 9.39228 3.80008 9.27495C3.93408 9.15762 4.11742 9.08262 4.35008 9.04995L9.20008 8.62495L11.0751 4.17495C11.1584 3.97495 11.2878 3.82495 11.4631 3.72495C11.6384 3.62495 11.8174 3.57495 12.0001 3.57495C12.1828 3.57495 12.3618 3.62495 12.5371 3.72495C12.7124 3.82495 12.8418 3.97495 12.9251 4.17495L14.8001 8.62495L19.6501 9.04995C19.8834 9.08328 20.0668 9.15828 20.2001 9.27495C20.3334 9.39162 20.4334 9.54162 20.5001 9.72495C20.5668 9.90829 20.5794 10.096 20.5381 10.288C20.4967 10.48 20.3924 10.6506 20.2251 10.8L16.5501 13.975L17.6501 18.7C17.7001 18.9166 17.6834 19.1126 17.6001 19.288C17.5168 19.4633 17.4001 19.609 17.2501 19.725C17.1001 19.841 16.9251 19.9076 16.7251 19.9249C16.5251 19.9423 16.3334 19.8923 16.1501 19.775L12.0001 17.275Z" fill="#FFC400"/>
<path d="M40.0001 17.275L35.8501 19.775C35.6668 19.8916 35.4751 19.9416 35.2751 19.9249C35.0751 19.9083 34.9001 19.8416 34.7501 19.725C34.6001 19.6083 34.4834 19.4626 34.4001 19.288C34.3168 19.1133 34.3001 18.9173 34.3501 18.7L35.4501 13.975L31.7751 10.8C31.6084 10.65 31.5044 10.479 31.4631 10.287C31.4218 10.095 31.4341 9.90762 31.5001 9.72495C31.5661 9.54228 31.6661 9.39228 31.8001 9.27495C31.9341 9.15762 32.1174 9.08262 32.3501 9.04995L37.2001 8.62495L39.0751 4.17495C39.1584 3.97495 39.2878 3.82495 39.4631 3.72495C39.6384 3.62495 39.8174 3.57495 40.0001 3.57495C40.1828 3.57495 40.3618 3.62495 40.5371 3.72495C40.7124 3.82495 40.8418 3.97495 40.9251 4.17495L42.8001 8.62495L47.6501 9.04995C47.8834 9.08328 48.0668 9.15828 48.2001 9.27495C48.3334 9.39162 48.4334 9.54162 48.5001 9.72495C48.5668 9.90829 48.5794 10.096 48.5381 10.288C48.4967 10.48 48.3924 10.6506 48.2251 10.8L44.5501 13.975L45.6501 18.7C45.7001 18.9166 45.6834 19.1126 45.6001 19.288C45.5168 19.4633 45.4001 19.609 45.2501 19.725C45.1001 19.841 44.9251 19.9076 44.7251 19.9249C44.5251 19.9423 44.3334 19.8923 44.1501 19.775L40.0001 17.275Z" fill="#FFC400"/>
<path d="M68.0001 17.275L63.8501 19.775C63.6668 19.8916 63.4751 19.9416 63.2751 19.9249C63.0751 19.9083 62.9001 19.8416 62.7501 19.725C62.6001 19.6083 62.4834 19.4626 62.4001 19.288C62.3168 19.1133 62.3001 18.9173 62.3501 18.7L63.4501 13.975L59.7751 10.8C59.6084 10.65 59.5044 10.479 59.4631 10.287C59.4218 10.095 59.4341 9.90762 59.5001 9.72495C59.5661 9.54228 59.6661 9.39228 59.8001 9.27495C59.9341 9.15762 60.1174 9.08262 60.3501 9.04995L65.2001 8.62495L67.0751 4.17495C67.1584 3.97495 67.2878 3.82495 67.4631 3.72495C67.6384 3.62495 67.8174 3.57495 68.0001 3.57495C68.1828 3.57495 68.3618 3.62495 68.5371 3.72495C68.7124 3.82495 68.8418 3.97495 68.9251 4.17495L70.8001 8.62495L75.6501 9.04995C75.8834 9.08328 76.0668 9.15828 76.2001 9.27495C76.3334 9.39162 76.4334 9.54162 76.5001 9.72495C76.5668 9.90829 76.5794 10.096 76.5381 10.288C76.4967 10.48 76.3924 10.6506 76.2251 10.8L72.5501 13.975L73.6501 18.7C73.7001 18.9166 73.6834 19.1126 73.6001 19.288C73.5168 19.4633 73.4001 19.609 73.2501 19.725C73.1001 19.841 72.9251 19.9076 72.7251 19.9249C72.5251 19.9423 72.3334 19.8923 72.1501 19.775L68.0001 17.275Z" fill="#FFC400"/>
<path d="M96.0001 17.275L91.8501 19.775C91.6668 19.8916 91.4751 19.9416 91.2751 19.9249C91.0751 19.9083 90.9001 19.8416 90.7501 19.725C90.6001 19.6083 90.4834 19.4626 90.4001 19.288C90.3168 19.1133 90.3001 18.9173 90.3501 18.7L91.4501 13.975L87.7751 10.8C87.6084 10.65 87.5044 10.479 87.4631 10.287C87.4218 10.095 87.4341 9.90762 87.5001 9.72495C87.5661 9.54228 87.6661 9.39228 87.8001 9.27495C87.9341 9.15762 88.1174 9.08262 88.3501 9.04995L93.2001 8.62495L95.0751 4.17495C95.1584 3.97495 95.2878 3.82495 95.4631 3.72495C95.6384 3.62495 95.8174 3.57495 96.0001 3.57495C96.1828 3.57495 96.3618 3.62495 96.5371 3.72495C96.7124 3.82495 96.8418 3.97495 96.9251 4.17495L98.8001 8.62495L103.65 9.04995C103.883 9.08328 104.067 9.15828 104.2 9.27495C104.333 9.39162 104.433 9.54162 104.5 9.72495C104.567 9.90829 104.579 10.096 104.538 10.288C104.497 10.48 104.392 10.6506 104.225 10.8L100.55 13.975L101.65 18.7C101.7 18.9166 101.683 19.1126 101.6 19.288C101.517 19.4633 101.4 19.609 101.25 19.725C101.1 19.841 100.925 19.9076 100.725 19.9249C100.525 19.9423 100.333 19.8923 100.15 19.775L96.0001 17.275Z" fill="#FFC400"/>
<path d="M124 17.275L119.85 19.775C119.667 19.8916 119.475 19.9416 119.275 19.9249C119.075 19.9083 118.9 19.8416 118.75 19.725C118.6 19.6083 118.483 19.4626 118.4 19.288C118.317 19.1133 118.3 18.9173 118.35 18.7L119.45 13.975L115.775 10.8C115.608 10.65 115.504 10.479 115.463 10.287C115.422 10.095 115.434 9.90762 115.5 9.72495C115.566 9.54228 115.666 9.39228 115.8 9.27495C115.934 9.15762 116.117 9.08262 116.35 9.04995L121.2 8.62495L123.075 4.17495C123.158 3.97495 123.288 3.82495 123.463 3.72495C123.638 3.62495 123.817 3.57495 124 3.57495C124.183 3.57495 124.362 3.62495 124.537 3.72495C124.712 3.82495 124.842 3.97495 124.925 4.17495L126.8 8.62495L131.65 9.04995C131.883 9.08328 132.067 9.15828 132.2 9.27495C132.333 9.39162 132.433 9.54162 132.5 9.72495C132.567 9.90829 132.579 10.096 132.538 10.288C132.497 10.48 132.392 10.6506 132.225 10.8L128.55 13.975L129.65 18.7C129.7 18.9166 129.683 19.1126 129.6 19.288C129.517 19.4633 129.4 19.609 129.25 19.725C129.1 19.841 128.925 19.9076 128.725 19.9249C128.525 19.9423 128.333 19.8923 128.15 19.775L124 17.275Z" fill="#FFC400"/>
</svg>
